<?xml version="1.0" encoding="iso-8859-1"?>
<!-- Generator: Adobe Illustrator 19.0.0, SVG Export Plug-In . SVG Version: 6.00 Build 0)  -->
<svg xmlns="http://www.w3.org/2000/svg" xmlns:xlink="http://www.w3.org/1999/xlink" version="1.1" id="Capa_1" x="0px" y="0px" viewBox="0 0 512 512" style="enable-background:new 0 0 512 512;" xml:space="preserve" width="512px" height="512px">
<g>
	<g>
		<path d="M486.4,0c-14.132,0.015-25.585,11.468-25.6,25.6v128h-17.067v-8.533c-0.031-28.264-22.936-51.169-51.2-51.2H119.467    v-8.533c-0.015-14.132-11.468-25.585-25.6-25.6H51.2V25.6C51.2,11.461,39.738,0,25.6,0S0,11.461,0,25.6v460.8    C0,500.539,11.461,512,25.6,512s25.6-11.461,25.6-25.6v-51.2h409.6v51.2c0,14.138,11.461,25.6,25.6,25.6s25.6-11.461,25.6-25.6    V25.6C511.985,11.468,500.532,0.015,486.4,0z M34.133,486.4c0,4.713-3.821,8.533-8.533,8.533s-8.533-3.82-8.533-8.533V25.6    c0-4.713,3.82-8.533,8.533-8.533s8.533,3.82,8.533,8.533V486.4z M51.2,76.8h42.667c4.71,0.006,8.527,3.823,8.533,8.533v8.533H51.2    V76.8z M51.2,110.933h341.333c18.843,0.02,34.113,15.29,34.133,34.133v8.533H51.2V110.933z M51.2,204.8h221.867v119.467h-153.6    v-8.533c-0.015-14.132-11.468-25.585-25.6-25.6H51.2V204.8z M51.2,307.2h42.667c4.71,0.006,8.527,3.823,8.533,8.533v8.533H51.2    V307.2z M51.2,341.333h341.333c18.843,0.02,34.113,15.29,34.133,34.133V384H51.2V341.333z M375.467,238.933V256h-85.333v-17.067    H375.467z M290.133,221.867V204.8h85.333v17.067H290.133z M375.467,273.067v17.067h-85.333v-17.067H375.467z M375.467,307.2    v17.067h-85.333V307.2H375.467z M460.8,418.133H51.2v-17.067h409.6V418.133z M460.8,384h-17.067v-8.533    c-0.031-28.264-22.936-51.169-51.2-51.2V204.8H460.8V384z M460.8,187.733H51.2v-17.067h409.6V187.733z M494.933,486.4    c0,4.713-3.82,8.533-8.533,8.533s-8.533-3.82-8.533-8.533V25.6c0-4.713,3.82-8.533,8.533-8.533s8.533,3.82,8.533,8.533V486.4z" fill="#FFDA44"/>
	</g>
</g>
<g>
</g>
<g>
</g>
<g>
</g>
<g>
</g>
<g>
</g>
<g>
</g>
<g>
</g>
<g>
</g>
<g>
</g>
<g>
</g>
<g>
</g>
<g>
</g>
<g>
</g>
<g>
</g>
<g>
</g>
</svg>
