<?xml version="1.0" encoding="iso-8859-1"?>
<!-- Generator: Adobe Illustrator 19.0.0, SVG Export Plug-In . SVG Version: 6.00 Build 0)  -->
<svg xmlns="http://www.w3.org/2000/svg" xmlns:xlink="http://www.w3.org/1999/xlink" version="1.1" id="Capa_1" x="0px" y="0px" viewBox="0 0 512.003 512.003" style="enable-background:new 0 0 512.003 512.003;" xml:space="preserve" width="512px" height="512px">
<g>
	<g>
		<path d="M505.343,42.67c6.819-7.474,8.571-18.274,4.466-27.521c-4.105-9.247-13.291-15.19-23.408-15.146    c-10.117-0.044-19.303,5.899-23.408,15.146c-4.105,9.247-2.353,20.046,4.466,27.521c-4.265,4.663-6.639,10.748-6.658,17.067    v59.733h-409.6V59.737c-0.02-6.319-2.394-12.404-6.658-17.067c7.638-8.475,8.734-20.985,2.686-30.659    C41.181,2.337,29.454-2.156,18.49,0.999S-0.018,14.195,0.001,25.603c0.02,6.319,2.394,12.404,6.658,17.067    c-4.265,4.663-6.639,10.748-6.658,17.067v426.667c0,14.138,11.461,25.6,25.6,25.6s25.6-11.462,25.6-25.6v-42.667h409.6v42.667    c0,14.138,11.461,25.6,25.6,25.6s25.6-11.462,25.6-25.6V59.737C511.982,53.418,509.608,47.333,505.343,42.67z M34.135,486.403    c0,4.713-3.821,8.533-8.533,8.533s-8.533-3.82-8.533-8.533V59.737c0-4.713,3.82-8.533,8.533-8.533s8.533,3.82,8.533,8.533V486.403    z M25.601,34.137c-4.713,0-8.533-3.821-8.533-8.533c0.006-4.71,3.823-8.527,8.533-8.533c4.713,0,8.533,3.82,8.533,8.533    S30.314,34.137,25.601,34.137z M341.335,136.537h51.2V298.67h-51.2V136.537z M341.335,315.737h51.2v51.2h-51.2V315.737z     M264.535,136.537h59.733V298.67h-59.733V136.537z M264.535,315.737h59.733v51.2h-59.733V315.737z M187.735,136.537h59.733V298.67    h-59.733V136.537z M187.735,315.737h59.733v51.2h-59.733V315.737z M119.468,136.537h51.2V298.67h-51.2V136.537z M119.468,315.737    h51.2v51.2h-51.2V315.737z M51.201,136.537h51.2V298.67h-8.533c-14.132,0.015-25.585,11.468-25.6,25.6v42.667H51.201V136.537z     M102.401,315.737v51.2H85.335V324.27c0.006-4.71,3.823-8.527,8.533-8.533H102.401z M460.801,426.67h-409.6v-42.667h409.6V426.67z     M460.801,366.937h-51.2v-51.2h51.2V366.937z M460.801,298.67h-51.2V136.537h51.2V298.67z M494.935,486.403    c0,4.713-3.82,8.533-8.533,8.533s-8.533-3.82-8.533-8.533V59.737c0-4.713,3.82-8.533,8.533-8.533s8.533,3.82,8.533,8.533V486.403z     M486.401,34.137c-4.713,0-8.533-3.821-8.533-8.533c0.006-4.71,3.823-8.527,8.533-8.533c4.713,0,8.533,3.82,8.533,8.533    S491.114,34.137,486.401,34.137z" fill="#FFDA44"/>
	</g>
</g>
<g>
</g>
<g>
</g>
<g>
</g>
<g>
</g>
<g>
</g>
<g>
</g>
<g>
</g>
<g>
</g>
<g>
</g>
<g>
</g>
<g>
</g>
<g>
</g>
<g>
</g>
<g>
</g>
<g>
</g>
</svg>
