<?xml version="1.0" encoding="iso-8859-1"?>
<!-- Generator: Adobe Illustrator 19.0.0, SVG Export Plug-In . SVG Version: 6.00 Build 0)  -->
<svg xmlns="http://www.w3.org/2000/svg" xmlns:xlink="http://www.w3.org/1999/xlink" version="1.1" id="Capa_1" x="0px" y="0px" viewBox="0 0 512 512" style="enable-background:new 0 0 512 512;" xml:space="preserve" width="512px" height="512px">
<g>
	<g>
		<g>
			<path d="M392.533,0H119.467c-14.132,0.015-25.585,11.468-25.6,25.6v426.667c0.033,10.813,6.868,20.435,17.067,24.027v27.173     c-0.001,2.263,0.898,4.434,2.499,6.035c1.6,1.6,3.771,2.499,6.035,2.499H153.6c2.263,0.001,4.434-0.898,6.035-2.499     c1.6-1.6,2.499-3.771,2.499-6.035v-25.6h187.733v25.6c-0.001,2.263,0.898,4.434,2.499,6.035c1.6,1.6,3.771,2.499,6.035,2.499     h34.133c2.263,0.001,4.434-0.898,6.035-2.499c1.6-1.6,2.499-3.771,2.499-6.035v-27.172c10.199-3.592,17.033-13.214,17.067-24.028     V25.6C418.118,11.468,406.665,0.015,392.533,0z M145.067,494.933H128v-17.067h17.067V494.933z M384,494.933h-17.067v-17.067H384     V494.933z M401.067,452.267c-0.005,4.711-3.822,8.529-8.533,8.533H119.467c-4.711-0.005-8.529-3.823-8.533-8.533V25.6     c0.005-4.711,3.822-8.529,8.533-8.533h273.067c4.711,0.005,8.529,3.822,8.533,8.533V452.267z" fill="#FFDA44"/>
			<path d="M366.933,221.867H145.067c-9.421,0.011-17.056,7.645-17.067,17.067v187.733c0.011,9.421,7.645,17.056,17.067,17.067     h221.867c9.421-0.011,17.056-7.645,17.067-17.067V238.933C383.989,229.512,376.355,221.877,366.933,221.867z M145.067,238.933     h221.869v51.2H145.067V238.933z M145.067,307.2h221.872v51.2H145.067V307.2z M366.942,426.667H145.067v-51.2h221.875V426.667z" fill="#FFDA44"/>
			<path d="M366.933,34.133H145.067C135.645,34.144,128.011,41.779,128,51.2v136.533c0.011,9.421,7.645,17.056,17.067,17.067     h221.867c9.421-0.011,17.056-7.645,17.067-17.067V51.2C383.989,41.779,376.355,34.144,366.933,34.133z M247.467,187.733h-102.4     V51.2h102.4V187.733z M264.533,187.733V51.2h102.4l0.008,136.533H264.533z" fill="#FFDA44"/>
			<path d="M196.267,145.067c14.138,0,25.6-11.461,25.6-25.6c-0.015-14.132-11.468-25.585-25.6-25.6     c-14.138,0-25.6,11.461-25.6,25.6S182.128,145.067,196.267,145.067z M196.267,110.933c4.713,0,8.533,3.82,8.533,8.533     c-0.005,4.711-3.822,8.529-8.533,8.533c-4.713,0-8.533-3.82-8.533-8.533S191.554,110.933,196.267,110.933z" fill="#FFDA44"/>
			<path d="M315.733,93.867c-14.138,0-25.6,11.461-25.6,25.6s11.462,25.6,25.6,25.6s25.6-11.461,25.6-25.6     C341.318,105.335,329.865,93.882,315.733,93.867z M315.733,128c-4.713,0-8.533-3.82-8.533-8.533s3.82-8.533,8.533-8.533     s8.533,3.82,8.533,8.533C324.262,124.178,320.444,127.995,315.733,128z" fill="#FFDA44"/>
			<path d="M273.067,256h-34.133c-4.713,0-8.533,3.82-8.533,8.533s3.82,8.533,8.533,8.533h34.133c4.713,0,8.533-3.82,8.533-8.533     S277.78,256,273.067,256z" fill="#FFDA44"/>
			<path d="M273.067,324.267h-34.133c-4.713,0-8.533,3.821-8.533,8.533c0,4.713,3.82,8.533,8.533,8.533h34.133     c4.713,0,8.533-3.821,8.533-8.533C281.6,328.087,277.78,324.267,273.067,324.267z" fill="#FFDA44"/>
			<path d="M238.933,409.6h34.133c4.713,0,8.533-3.82,8.533-8.533s-3.82-8.533-8.533-8.533h-34.133     c-4.713,0-8.533,3.821-8.533,8.533S234.221,409.6,238.933,409.6z" fill="#FFDA44"/>
		</g>
	</g>
</g>
<g>
</g>
<g>
</g>
<g>
</g>
<g>
</g>
<g>
</g>
<g>
</g>
<g>
</g>
<g>
</g>
<g>
</g>
<g>
</g>
<g>
</g>
<g>
</g>
<g>
</g>
<g>
</g>
<g>
</g>
</svg>
